<?xml version="1.0" encoding="UTF-8"?>
<svg version="1.1" viewBox="0 0 134 24" xmlns="http://www.w3.org/2000/svg">
    <g fill="none" fill-rule="evenodd">
        <g transform="translate(-96 -88)">
            <g transform="translate(96 88)">
                <path id="Path" d="m32.736 18.167c0.1675 2.8383 1.6122 4.4139 4.0514 4.4139 1.2529 0.17363 2.4742-0.48231 3.0178-1.6208 0.54358-1.1385 0.28402-2.4969-0.64138-3.3566-0.57269-0.52778-1.2504-0.92953-1.9891-1.1791l-1.4238-0.56348c-0.93788-0.32464-1.7998-0.83585-2.5334-1.5026-0.73196-0.73186-1.1456-1.7214-1.1516-2.7548 0-2.5043 2.0938-4.1739 5.2344-4.1739 0.97517 0.012784 1.9453 0.14241 2.8894 0.38609 0.50534 0.12075 1.0202 0.19756 1.5389 0.22957v1.5965 2.3687h-0.58625c0.022354-0.81194-0.17278-1.6152-0.56531-2.327-0.64275-1.1474-1.8753-1.8403-3.193-1.7948-0.76403-0.079528-1.5262 0.16645-2.0985 0.67723-0.57227 0.51079-0.90136 1.2388-0.90607 2.0045 0 1.3252 0.70141 2.087 2.7323 2.9426l1.4028 0.59478c0.8991 0.3188 1.7353 0.79203 2.4706 1.3983 0.89025 0.75926 1.4028 1.8687 1.4028 3.0365 0 2.6609-2.2194 4.5078-5.4333 4.5078-1.059-0.016691-2.1126-0.15322-3.1406-0.40696-0.55714-0.13977-1.1241-0.23744-1.6959-0.29217 0-0.9913 0.052344-1.8052 0.052344-2.2539v-1.9096l0.56531-0.02087z" fill="#FAFAFA"/>
                <path id="Path" d="m53.453 22.237h1.8111v0.54261c-1.3505-0.062609-2.4183-0.083478-3.0778-0.083478-0.65953 0-1.7588 0-3.1406 0.083478v-0.54261h1.832v-14.035h-1.853v-0.54261c1.3609 0.073043 2.4183 0.093913 3.1406 0.093913 0.72234 0 1.7588 0 3.1406-0.093913v0.54261h-1.853v14.035z" fill="#FAFAFA"/>
                <path id="Path" d="m73.658 12.365c-0.039201-0.86198-0.26414-1.7054-0.65953-2.473-0.77446-1.3122-2.2235-2.0787-3.7478-1.9826-3.3291 0-5.0878 2.5043-5.0878 7.2313 0 4.727 1.675 7.3983 4.7947 7.3983 1.0721-0.010687 2.1252-0.28297 3.0673-0.79304v-4.7374h-1.832v-0.5113h2.858 3.1406v0.5113h-1.5912v5.3635c-1.1771 0.024186-2.3486 0.16753-3.4966 0.42783-0.77788 0.13815-1.5655 0.21491-2.3555 0.22957-2.0629 0.054801-4.0603-0.72426-5.538-2.16-1.3266-1.5784-2.0037-3.5994-1.8948-5.6557 0-4.8313 2.9103-7.7843 7.705-7.7843 0.94437 0.0035044 1.8854 0.112 2.8056 0.32348 0.77462 0.21458 1.5727 0.33373 2.3764 0.35478v2.087 2.2017l-0.54438-0.031304z" fill="#FAFAFA"/>
                <path id="Shape" d="m87.477 7.7009c2.3973 0 3.3081 0.16696 4.3864 0.73043 1.1364 0.61403 1.8239 1.8185 1.7728 3.106-0.051133 1.2875-0.832 2.434-2.0136 2.9566-0.72393 0.28194-1.4861 0.45428-2.2612 0.5113 0.79899 0.038569 1.5885 0.18963 2.345 0.4487 1.4281 0.47688 2.3757 1.8281 2.3345 3.3287 0 1.9617-1.2877 3.3287-3.5803 3.7878-0.92125 0.17739-0.92125 0.17739-6.0719 0.17739h-2.8789v-0.54261h1.832v-14.003h-1.832v-0.54261h2.0938l3.8734 0.041739zm-0.062812 7.0539c0.91165 0.083339 1.8201-0.18981 2.5334-0.76174 0.66494-0.70686 1.0159-1.6511 0.97359-2.6191 0.028561-0.90069-0.28984-1.7781-0.88984-2.4522-0.56531-0.57391-1.0469-0.72-2.8475-0.72h-1.2144v6.553h1.4447zm0 7.4817c1.0217 0.13218 2.0512-0.17945 2.8266-0.85565 0.66347-0.74824 1.0056-1.7263 0.95266-2.7235 0-2.3165-1.1725-3.3809-3.7583-3.3809h-1.4656v6.96h1.4447z" fill="#FAFAFA"/>
                <path id="b" d="m112.76 22.237h1.183v0.54261c-1.2248-0.062609-2.2403-0.083478-2.7847-0.083478-0.74328 0-1.6959 0-3.0569 0.083478v-0.54261h1.8216l-1.9577-4.4974h-5.7159l-0.56531 1.367c-0.44846 1.0078-0.79902 2.056-1.0469 3.1304h1.4342v0.54261c-0.79562-0.062609-1.3609-0.083478-1.7692-0.083478-0.40828 0-0.93172 0-1.6541 0.083478v-0.54261h0.91078c0.62755-1.052 1.1567-2.1592 1.5808-3.3078l4.7005-11.384h0.63859l6.2812 14.692zm-5.0145-5.04-2.6486-6.4487-2.6486 6.4487h5.2972z" fill="#FAFAFA"/>
                <path d="m133.27 22.779c-0.81656-0.062609-1.518-0.083478-1.8844-0.083478-0.36641 0-1.1725 0-2.0938 0.083478-0.42922-0.87652-0.48156-1.1896-0.68047-3.8296-0.19891-2.64-0.91078-3.2974-3.507-3.2974h-1.6017v6.5739h1.8739v0.54261c-1.3609-0.062609-2.4183-0.083478-3.0778-0.083478-0.65953 0-1.7797 0-3.1406 0.083478v-0.54261h1.8111v-14.024h-1.8111v-0.54261c1.2667 0.073043 1.7588 0.073043 2.7533 0.073043h3.507c2.167 0 3.2977 0.25043 4.3236 0.94957 0.95666 0.65821 1.5157 1.753 1.4866 2.9113 0.04773 1.3405-0.7214 2.577-1.9472 3.1304-0.76137 0.33421-1.5701 0.54893-2.3973 0.63652 2.0414 0 2.7428 0.24 3.4233 0.91826 0.68047 0.67826 0.78516 1.2209 1.0469 3.6104 0.23031 2.1809 0.38734 2.3896 1.9681 2.3583l-0.052344 0.53217zm-8.0714-7.6383c2.0938 0 3.2767-1.2626 3.2767-3.5165 0-2.2539-1.1306-3.4226-3.507-3.4226h-1.4656v6.9391h1.6959z" fill="#FAFAFA"/>
                <polygon id="a" points="7.6317 7.607 0 7.607 0 15.214 0 22.821 7.6317 22.821 15.263 22.821 15.263 15.214 7.6317 15.214" fill="#FED141"/>
                <polygon points="15.263 9.1104e-13 7.6317 9.1104e-13 7.6317 7.607 15.263 7.607 15.263 15.214 22.895 15.214 22.895 7.607 22.895 9.1104e-13" fill="#FED141"/>
            </g>
        </g>
    </g>
</svg>
